<?xml version="1.0" standalone="no"?><!DOCTYPE svg PUBLIC "-//W3C//DTD SVG 1.1//EN" "http://www.w3.org/Graphics/SVG/1.1/DTD/svg11.dtd"><svg t="1536927098925" class="icon" style="" viewBox="0 0 1024 1024" version="1.1" xmlns="http://www.w3.org/2000/svg" p-id="8791" xmlns:xlink="http://www.w3.org/1999/xlink" width="15" height="15"><defs><style type="text/css"></style></defs><path d="M252.7 534.4c0-19.5 16-35.4 35.3-35.4h212.5c19.5 0 35.3 15.7 35.3 35.4 0 19.5-16 35.4-35.3 35.4H288c-19.5 0-35.3-15.7-35.3-35.4z m0-165.1c0-19.5 15.7-35.4 35.5-35.4H689c19.6 0 35.5 15.7 35.5 35.4 0 19.5-15.7 35.4-35.5 35.4H288.2c-19.6 0-35.5-15.7-35.5-35.4z m707.7 95.1v-25.5c0-187.5-152.9-340.8-339.8-340.8H403.8C216.9 98.1 64 251.4 64 438.9v25.5c0 187.5 119.7 341.3 306.6 341.3h167.9l-2.8 141.5c0 18.9 6.8 30.2 21.2 17.9l276.7-235.9c79.5-64.4 126.8-161 126.8-264.8z" fill="#24cd77" p-id="8792"></path></svg>